<svg xmlns="http://www.w3.org/2000/svg" viewBox="0 0 32 32" width="32" height="32">
  <defs>
    <linearGradient id="favicon-gradient" x1="0%" y1="0%" x2="100%" y2="100%">
      <stop offset="0%" style="stop-color:#6366f1;stop-opacity:1" />
      <stop offset="100%" style="stop-color:#8b5cf6;stop-opacity:1" />
    </linearGradient>
  </defs>
  
  <!-- Central hexagon -->
  <polygon points="16,6 22,10 22,18 16,22 10,18 10,10" fill="url(#favicon-gradient)"/>
  
  <!-- Core -->
  <circle cx="16" cy="16" r="3" fill="white" opacity="0.9"/>
  
  <!-- Mesh connections -->
  <g stroke="url(#favicon-gradient)" stroke-width="1.5" fill="none" opacity="0.6">
    <polygon points="16,2 20,4 20,8 16,10 12,8 12,4"/>
    <polygon points="26,10 30,12 30,16 26,18 22,16 22,12"/>
    <polygon points="26,20 30,22 30,26 26,28 22,26 22,22"/>
    <polygon points="16,26 20,28 20,32 16,34 12,32 12,28" transform="translate(0,-2)"/>
    <polygon points="6,20 10,22 10,26 6,28 2,26 2,22"/>
    <polygon points="6,10 10,12 10,16 6,18 2,16 2,12"/>
  </g>
</svg>