<svg xmlns="http://www.w3.org/2000/svg" viewBox="0 0 100 100" width="100" height="100">
  <defs>
    <linearGradient id="gradient" x1="0%" y1="0%" x2="100%" y2="100%">
      <stop offset="0%" style="stop-color:#6366f1;stop-opacity:1" />
      <stop offset="100%" style="stop-color:#8b5cf6;stop-opacity:1" />
    </linearGradient>
    <filter id="glow">
      <feGaussianBlur stdDeviation="2" result="coloredBlur"/>
      <feMerge> 
        <feMergeNode in="coloredBlur"/>
        <feMergeNode in="SourceGraphic"/>
      </feMerge>
    </filter>
  </defs>
  
  <!-- Background circle -->
  <circle cx="50" cy="50" r="45" fill="url(#gradient)" filter="url(#glow)" opacity="0.1"/>
  
  <!-- Hexagonal mesh pattern -->
  <g stroke="url(#gradient)" stroke-width="2" fill="none">
    <!-- Central hexagon -->
    <polygon points="50,25 65,35 65,55 50,65 35,55 35,35" filter="url(#glow)"/>
    
    <!-- Surrounding hexagons -->
    <polygon points="50,10 65,20 65,40 50,50 35,40 35,20" opacity="0.7"/>
    <polygon points="80,35 95,45 95,65 80,75 65,65 65,45" opacity="0.7"/>
    <polygon points="80,55 95,65 95,85 80,95 65,85 65,65" opacity="0.6"/>
    <polygon points="50,70 65,80 65,100 50,110 35,100 35,80" opacity="0.6" transform="translate(0,-10)"/>
    <polygon points="20,55 35,65 35,85 20,95 5,85 5,65" opacity="0.6"/>
    <polygon points="20,35 35,45 35,65 20,75 5,65 5,45" opacity="0.7"/>
  </g>
  
  <!-- Connection lines -->
  <g stroke="url(#gradient)" stroke-width="1.5" opacity="0.5">
    <line x1="50" y1="25" x2="50" y2="15"/>
    <line x1="65" y1="35" x2="75" y2="40"/>
    <line x1="65" y1="55" x2="75" y2="60"/>
    <line x1="50" y1="65" x2="50" y2="75"/>
    <line x1="35" y1="55" x2="25" y2="60"/>
    <line x1="35" y1="35" x2="25" y2="40"/>
  </g>
  
  <!-- Central core -->
  <circle cx="50" cy="50" r="8" fill="url(#gradient)" filter="url(#glow)"/>
  <circle cx="50" cy="50" r="4" fill="white" opacity="0.9"/>
  
  <!-- Data flow indicators -->
  <g fill="url(#gradient)" opacity="0.8">
    <circle cx="42" cy="30" r="2">
      <animate attributeName="opacity" values="0.3;1;0.3" dur="2s" repeatCount="indefinite"/>
    </circle>
    <circle cx="58" cy="42" r="2">
      <animate attributeName="opacity" values="0.3;1;0.3" dur="2s" begin="0.5s" repeatCount="indefinite"/>
    </circle>
    <circle cx="58" cy="58" r="2">
      <animate attributeName="opacity" values="0.3;1;0.3" dur="2s" begin="1s" repeatCount="indefinite"/>
    </circle>
    <circle cx="42" cy="58" r="2">
      <animate attributeName="opacity" values="0.3;1;0.3" dur="2s" begin="1.5s" repeatCount="indefinite"/>
    </circle>
  </g>
</svg>